<svg version="1" xmlns="http://www.w3.org/2000/svg" width="346.667" height="346.667" viewBox="0 0 260.000000 260.000000"><path d="M12.6 19.5c-5.4 1.9-9.2 5.9-10.5 11-1.5 6-1.5 190.4 0 197.3 1.8 8.6 10.2 14 18.8 12.1 2.2-.5 10.6-4.8 18.8-9.5 8.1-4.7 15.7-9 16.8-9.5 2.1-1 5.7-3.1 6.5-3.9.5-.5 4.1-2.6 10-5.7 1.9-1 3.7-2.1 4-2.4.3-.3 2-1.2 3.8-2 1.7-.8 3.2-1.7 3.2-2 0-.4 1.5-1.2 3.3-2 1.7-.7 3.4-1.6 3.7-2 .3-.3 2.8-1.8 5.5-3.3 2.8-1.4 5.7-3.1 6.5-3.6 3.6-2.3 25.9-15 26.4-15 .4 0 14 7.7 30.4 17.2 16.3 9.4 35.3 20.3 42.2 24.2 6.9 3.8 12.7 7.4 12.8 7.8.2.4.8.8 1.4.8.6 0 4.7 2.2 9.2 4.9 9.4 5.7 14.4 7.3 18.6 6.1 1.7-.5 3.4-.9 3.8-1 2.7-.6 6.3-4 7.9-7.4 1.7-3.8 1.8-9.3 1.8-102.6V30.5l-2.4-4.2c-5-8.7-15.3-9.9-26.6-3C222 27.2 210 34 209.5 34c-.3 0-1.8.8-3.3 1.9-2.7 1.9-25.8 15.3-33.5 19.5-2.3 1.3-8.2 4.7-13.2 7.6-4.9 2.9-10.6 6.1-12.5 7.2-1.9 1.1-6.6 3.8-10.3 6l-6.8 3.9-3.9-2c-4-2.1-35.6-20.2-40-22.9-1.4-.9-4.3-2.6-6.5-3.8-4.6-2.4-7.5-4.1-20-11.4-4.9-2.9-10.8-6.3-13-7.5-2.2-1.3-8-4.6-12.8-7.4-4.9-2.8-10.1-5.4-11.5-5.7-1.5-.3-3.4-.7-4.2-.9-.8-.2-3.2.2-5.4 1z"/></svg>