<svg width="535" height="100" fill="none" xmlns="http://www.w3.org/2000/svg"><path d="M.99 1.28V98h32.63V83.05H15.68V1.28H.99zM37.934 1.28V98h34.19V83.31h-19.5V55.36h14.69V40.67h-14.69V15.32h18.72V1.28h-33.41zM89.603 98h24.181c11.05 0 15.6-7.41 15.6-17.68V59.39c0-9.75-4.68-12.74-8.45-14.17 3.77-1.43 7.28-5.2 7.28-13.39V17.01c0-9.36-3.38-15.73-15.47-15.73h-23.14V98zm19.111-44.07c4.68 0 5.72 2.21 5.72 6.24v17.68c0 4.29-1.04 6.5-5.72 6.5h-4.42V53.93h4.42zm0-39.52c4.03 0 5.07 2.08 5.07 6.11v12.22c0 4.03-1.04 6.76-5.07 6.76h-4.42V14.41h4.42zM174.198 22.47c0-13.26-4.55-22.1-18.85-22.1h-2.47c-13.91 0-18.85 8.71-18.85 22.23v53.82c0 13.52 4.94 22.75 18.98 22.75h2.47c14.17 0 18.72-9.23 18.72-22.75V22.47zm-14.95 54.99c0 4.16-.91 7.41-4.94 7.41-4.16 0-5.33-3.25-5.33-7.41V21.82c0-5.07 1.43-7.41 5.2-7.41 3.38 0 5.07 2.47 5.07 7.41v55.64zM204.195 1.28l-6.5 62.53-6.63-62.53h-14.82L188.335 98h16.25l6.24-56.29 6.11 56.29h15.73l12.35-96.72h-13.78l-6.76 62.66-6.63-62.66h-13.65zM270.731 98h17.81l12.22-96.72h-13.91l-6.76 66.56-6.63-66.56h-14.95L270.731 98zM343.046 22.47c0-13.26-4.55-22.1-18.85-22.1h-2.47c-13.91 0-18.85 8.71-18.85 22.23v53.82c0 13.52 4.94 22.75 18.98 22.75h2.47c14.17 0 18.72-9.23 18.72-22.75V22.47zm-14.95 54.99c0 4.16-.91 7.41-4.94 7.41-4.16 0-5.33-3.25-5.33-7.41V21.82c0-5.07 1.43-7.41 5.2-7.41 3.38 0 5.07 2.47 5.07 7.41v55.64zM366.268.37c-11.57 0-18.07 5.85-18.07 18.85v3.12c0 9.62 1.82 15.86 8.06 23.92l9.36 11.96c5.33 7.02 5.98 9.23 5.98 16.25v2.21c0 6.11-1.3 8.32-4.81 8.32-3.25 0-4.81-2.21-4.81-6.76v-16.9h-14.56v19.37c0 11.96 6.11 18.33 17.94 18.33h2.86c13 0 18.98-8.45 18.98-22.62V73.3c0-11.05-2.08-15.86-8.71-24.44l-9.36-12.09c-4.94-6.37-5.98-9.36-5.98-14.82v-1.82c0-4.55.78-6.76 4.29-6.76s4.16 2.47 4.16 5.72V33h14.17V17.14c0-11.44-4.68-16.77-16.77-16.77h-2.73zM406.439 99.3c7.41 0 12.35-7.54 13.39-10.79 1.17 4.16 2.34 8.97 2.47 9.49h8.32V39.24h-20.54v14.82h6.63v24.18c0 3.64-1.69 6.24-5.46 6.24-3.25 0-4.81-2.34-4.81-6.89V21.04c0-4.42 1.56-6.63 4.55-6.63 3.64 0 4.68 2.34 4.68 6.63v10.92h14.3v-9.88c0-11.44-1.82-21.71-17.55-21.71h-2.86c-14.04 0-18.07 10.01-18.07 20.8v60.45c0 10.01 5.33 17.68 14.04 17.68h.91zM450.876 1.28h-14.69V98h14.69V1.28zM456.879 1.28V98h34.19V83.31h-19.5V55.36h14.69V40.67h-14.69V15.32h18.72V1.28h-33.41zM495.346 1.28V98h13.26V42.36L522.646 98h11.96V1.28h-13.39v51.87l-12.61-51.87h-13.26z" fill="#000"/></svg>