<?xml version="1.0" encoding="utf-8"?>
<!-- Generator: Adobe Illustrator 23.0.1, SVG Export Plug-In . SVG Version: 6.00 Build 0)  -->
<svg version="1.1" id="Calque_1" xmlns="http://www.w3.org/2000/svg" xmlns:xlink="http://www.w3.org/1999/xlink" x="0px" y="0px"
	 viewBox="0 0 535 100" style="enable-background:new 0 0 535 100;" xml:space="preserve">
<style type="text/css">
	.st0{fill:#BCBEC0;}
</style>
<path class="st0" d="M1,1.3V98h32.6V83H15.7V1.3H1z M37.9,1.3V98h34.2V83.3H52.6V55.4h14.7V40.7H52.6V15.3h18.7v-14
	C71.3,1.3,37.9,1.3,37.9,1.3z M89.6,98h24.2c11.1,0,15.6-7.4,15.6-17.7V59.4c0-9.8-4.7-12.7-8.4-14.2c3.8-1.4,7.3-5.2,7.3-13.4V17
	c0-9.4-3.4-15.7-15.5-15.7H89.6L89.6,98L89.6,98z M108.7,53.9c4.7,0,5.7,2.2,5.7,6.2v17.7c0,4.3-1,6.5-5.7,6.5h-4.4V53.9H108.7z
	 M108.7,14.4c4,0,5.1,2.1,5.1,6.1v12.2c0,4-1,6.8-5.1,6.8h-4.4V14.4H108.7z M174.2,22.5c0-13.3-4.6-22.1-18.9-22.1h-2.5
	C139,0.4,134,9.1,134,22.6v53.8c0,13.5,4.9,22.8,19,22.8h2.5c14.2,0,18.7-9.2,18.7-22.8L174.2,22.5L174.2,22.5z M159.2,77.5
	c0,4.2-0.9,7.4-4.9,7.4c-4.2,0-5.3-3.2-5.3-7.4V21.8c0-5.1,1.4-7.4,5.2-7.4c3.4,0,5.1,2.5,5.1,7.4V77.5z M204.2,1.3l-6.5,62.5
	l-6.6-62.5h-14.8L188.3,98h16.2l6.2-56.3l6.1,56.3h15.7L245,1.3h-13.8l-6.8,62.7l-6.6-62.7L204.2,1.3L204.2,1.3z M270.7,98h17.8
	l12.2-96.7h-13.9l-6.8,66.6l-6.6-66.6h-15L270.7,98z M343,22.5c0-13.3-4.5-22.1-18.9-22.1h-2.5c-13.9,0-18.9,8.7-18.9,22.2v53.8
	c0,13.5,4.9,22.8,19,22.8h2.5c14.2,0,18.7-9.2,18.7-22.8V22.5z M328.1,77.5c0,4.2-0.9,7.4-4.9,7.4c-4.2,0-5.3-3.2-5.3-7.4V21.8
	c0-5.1,1.4-7.4,5.2-7.4c3.4,0,5.1,2.5,5.1,7.4L328.1,77.5L328.1,77.5z M366.3,0.4c-11.6,0-18.1,5.8-18.1,18.9v3.1
	c0,9.6,1.8,15.9,8.1,23.9l9.4,12c5.3,7,6,9.2,6,16.2v2.2c0,6.1-1.3,8.3-4.8,8.3c-3.2,0-4.8-2.2-4.8-6.8V61.3h-14.6v19.4
	c0,12,6.1,18.3,17.9,18.3h2.9c13,0,19-8.4,19-22.6v-3.1c0-11-2.1-15.9-8.7-24.4l-9.4-12.1c-4.9-6.4-6-9.4-6-14.8v-1.8
	c0-4.5,0.8-6.8,4.3-6.8s4.2,2.5,4.2,5.7V33h14.2V17.1c0-11.4-4.7-16.8-16.8-16.8L366.3,0.4L366.3,0.4z M406.4,99.3
	c7.4,0,12.4-7.5,13.4-10.8c1.2,4.2,2.3,9,2.5,9.5h8.3V39.2h-20.5v14.8h6.6v24.2c0,3.6-1.7,6.2-5.5,6.2c-3.2,0-4.8-2.3-4.8-6.9V21
	c0-4.4,1.6-6.6,4.5-6.6c3.6,0,4.7,2.3,4.7,6.6V32H430v-9.9c0-11.4-1.8-21.7-17.5-21.7h-2.9c-14,0-18.1,10-18.1,20.8v60.5
	c0,10,5.3,17.7,14,17.7H406.4L406.4,99.3z M450.9,1.3h-14.7V98h14.7V1.3z M456.9,1.3V98h34.2V83.3h-19.5V55.4h14.7V40.7h-14.7V15.3
	h18.7v-14H456.9z M495.3,1.3V98h13.3V42.4l14,55.6h12V1.3h-13.4v51.9L508.6,1.3C508.6,1.3,495.3,1.3,495.3,1.3z"/>
</svg>
