{
    "asset" : {
        "generator" : "Khronos glTF Blender I/O v1.1.46",
        "version" : "2.0"
    },
    "extensionsUsed" : [
        "KHR_lights_punctual"
    ],
    "extensionsRequired" : [
        "KHR_lights_punctual"
    ],
    "extensions" : {
        "KHR_lights_punctual" : {
            "lights" : [
                {
                    "color" : [
                        1,
                        1,
                        1
                    ],
                    "intensity" : 0.10000000149011612,
                    "type" : "point",
                    "name" : "Point.002"
                },
                {
                    "color" : [
                        1,
                        1,
                        1
                    ],
                    "intensity" : 0.07500000298023224,
                    "type" : "point",
                    "name" : "Point.003"
                },
                {
                    "color" : [
                        1,
                        1,
                        1
                    ],
                    "intensity" : 0.07500000298023224,
                    "type" : "point",
                    "name" : "Point.004"
                },
                {
                    "color" : [
                        1,
                        1,
                        1
                    ],
                    "intensity" : 0.10000000149011612,
                    "type" : "point",
                    "name" : "Point.005"
                },
                {
                    "color" : [
                        1,
                        1,
                        1
                    ],
                    "intensity" : 0.07500000298023224,
                    "type" : "point",
                    "name" : "Point.006"
                }
            ]
        }
    },
    "scene" : 0,
    "scenes" : [
        {
            "name" : "Scene",
            "nodes" : [
                0,
                1,
                2,
                3,
                4,
                5,
                6
            ]
        }
    ],
    "nodes" : [
        {
            "camera" : 0,
            "name" : "Camera",
            "rotation" : [
                0.6668271422386169,
                0.09459661692380905,
                0.1259768158197403,
                0.7283700108528137
            ],
            "translation" : [
                12.796420097351074,
                -15.101658821105957,
                3.992114305496216
            ]
        },
        {
            "mesh" : 0,
            "name" : "Cube",
            "scale" : [
                0.6550054550170898,
                0.6550054550170898,
                0.6550054550170898
            ]
        },
        {
            "extensions" : {
                "KHR_lights_punctual" : {
                    "light" : 0
                }
            },
            "name" : "Point.001",
            "translation" : [
                -2.9638757705688477,
                38.218589782714844,
                7.615029335021973
            ]
        },
        {
            "extensions" : {
                "KHR_lights_punctual" : {
                    "light" : 1
                }
            },
            "name" : "Point.002",
            "translation" : [
                -8.296339988708496,
                67.79096984863281,
                6.238168239593506
            ]
        },
        {
            "extensions" : {
                "KHR_lights_punctual" : {
                    "light" : 2
                }
            },
            "name" : "Point.003",
            "translation" : [
                -10.496460914611816,
                98.44353485107422,
                12.11676025390625
            ]
        },
        {
            "extensions" : {
                "KHR_lights_punctual" : {
                    "light" : 3
                }
            },
            "name" : "Point.004",
            "translation" : [
                10.881952285766602,
                181.34799194335938,
                13.237665176391602
            ]
        },
        {
            "extensions" : {
                "KHR_lights_punctual" : {
                    "light" : 4
                }
            },
            "name" : "Point.005",
            "translation" : [
                1.8282338380813599,
                15.041484832763672,
                5.775260925292969
            ]
        }
    ],
    "cameras" : [
        {
            "name" : "Camera",
            "perspective" : {
                "yfov" : 0.8626525991091963,
                "zfar" : 2000,
                "znear" : 0.009999999776482582
            },
            "type" : "perspective"
        }
    ],
    "animations" : [
        {
            "channels" : [
                {
                    "sampler" : 0,
                    "target" : {
                        "node" : 0,
                        "path" : "translation"
                    }
                },
                {
                    "sampler" : 1,
                    "target" : {
                        "node" : 0,
                        "path" : "rotation"
                    }
                }
            ],
            "name" : "CameraAction.001",
            "samplers" : [
                {
                    "input" : 4,
                    "interpolation" : "LINEAR",
                    "output" : 5
                },
                {
                    "input" : 4,
                    "interpolation" : "LINEAR",
                    "output" : 6
                }
            ]
        }
    ],
    "materials" : [
        {
            "doubleSided" : true,
            "emissiveFactor" : [
                0,
                0,
                0
            ],
            "name" : "Material.001",
            "pbrMetallicRoughness" : {
                "baseColorFactor" : [
                    1,
                    1,
                    1,
                    1
                ],
                "metallicFactor" : 0,
                "roughnessFactor" : 1
            }
        }
    ],
    "meshes" : [
        {
            "name" : "Cube",
            "primitives" : [
                {
                    "attributes" : {
                        "POSITION" : 0,
                        "NORMAL" : 1,
                        "TEXCOORD_0" : 2
                    },
                    "indices" : 3,
                    "material" : 0
                }
            ]
        }
    ],
    "accessors" : [
        {
            "bufferView" : 0,
            "componentType" : 5126,
            "count" : 52178,
            "max" : [
                23.645099639892578,
                283.3992614746094,
                20.170276641845703
            ],
            "min" : [
                -27.687114715576172,
                -23.176118850708008,
                -4.91929292678833
            ],
            "type" : "VEC3"
        },
        {
            "bufferView" : 1,
            "componentType" : 5126,
            "count" : 52178,
            "type" : "VEC3"
        },
        {
            "bufferView" : 2,
            "componentType" : 5126,
            "count" : 52178,
            "type" : "VEC2"
        },
        {
            "bufferView" : 3,
            "componentType" : 5123,
            "count" : 78660,
            "type" : "SCALAR"
        },
        {
            "bufferView" : 4,
            "componentType" : 5126,
            "count" : 1190,
            "max" : [
                49.583333333333336
            ],
            "min" : [
                0.041666666666666664
            ],
            "type" : "SCALAR"
        },
        {
            "bufferView" : 5,
            "componentType" : 5126,
            "count" : 1190,
            "type" : "VEC3"
        },
        {
            "bufferView" : 6,
            "componentType" : 5126,
            "count" : 1190,
            "type" : "VEC4"
        }
    ],
    "bufferViews" : [
        {
            "buffer" : 0,
            "byteLength" : 626136,
            "byteOffset" : 0
        },
        {
            "buffer" : 0,
            "byteLength" : 626136,
            "byteOffset" : 626136
        },
        {
            "buffer" : 0,
            "byteLength" : 417424,
            "byteOffset" : 1252272
        },
        {
            "buffer" : 0,
            "byteLength" : 157320,
            "byteOffset" : 1669696
        },
        {
            "buffer" : 0,
            "byteLength" : 4760,
            "byteOffset" : 1827016
        },
        {
            "buffer" : 0,
            "byteLength" : 14280,
            "byteOffset" : 1831776
        },
        {
            "buffer" : 0,
            "byteLength" : 19040,
            "byteOffset" : 1846056
        }
    ],
    "buffers" : [
        {
            "byteLength" : 1865096,
            "uri" : "data:application/octet-stream;base64,"
        }
    ]
}
