{
    "asset" : {
        "generator" : "Khronos glTF Blender I/O v1.1.46",
        "version" : "2.0"
    },
    "scene" : 0,
    "scenes" : [
        {
            "name" : "Scene",
            "nodes" : [
                1,
                2
            ]
        }
    ],
    "nodes" : [
        {
            "camera" : 0,
            "name" : "Camera_Orientation",
            "rotation" : [
                -0.7071067690849304,
                0,
                0,
                0.7071067690849304
            ]
        },
        {
            "children" : [
                0
            ],
            "name" : "Camera",
            "rotation" : [
                0.6388459205627441,
                0.22892017662525177,
                -0.20757220685482025,
                0.7045460939407349
            ],
            "translation" : [
                23.805105209350586,
                0,
                27.00421142578125
            ]
        },
        {
            "mesh" : 0,
            "name" : "Plane",
            "scale" : [
                5,
                5,
                5
            ],
            "translation" : [
                2.3699188232421875,
                -26.180036544799805,
                -33.66571044921875
            ]
        }
    ],
    "cameras" : [
        {
            "name" : "Camera",
            "perspective" : {
                "yfov" : 0.6939551846210171,
                "zfar" : 1000,
                "znear" : 0.009999999776482582
            },
            "type" : "perspective"
        }
    ],
    "animations" : [
        {
            "channels" : [
                {
                    "sampler" : 0,
                    "target" : {
                        "node" : 1,
                        "path" : "translation"
                    }
                },
                {
                    "sampler" : 1,
                    "target" : {
                        "node" : 1,
                        "path" : "rotation"
                    }
                }
            ],
            "name" : "CameraAction",
            "samplers" : [
                {
                    "input" : 4,
                    "interpolation" : "LINEAR",
                    "output" : 5
                },
                {
                    "input" : 4,
                    "interpolation" : "LINEAR",
                    "output" : 6
                }
            ]
        }
    ],
    "meshes" : [
        {
            "name" : "Plane",
            "primitives" : [
                {
                    "attributes" : {
                        "POSITION" : 0,
                        "NORMAL" : 1,
                        "TEXCOORD_0" : 2
                    },
                    "indices" : 3
                }
            ]
        }
    ],
    "accessors" : [
        {
            "bufferView" : 0,
            "componentType" : 5126,
            "count" : 4100,
            "max" : [
                31.480009078979492,
                0,
                48.99985122680664
            ],
            "min" : [
                -31.480005264282227,
                0,
                -49.000186920166016
            ],
            "type" : "VEC3"
        },
        {
            "bufferView" : 1,
            "componentType" : 5126,
            "count" : 4100,
            "type" : "VEC3"
        },
        {
            "bufferView" : 2,
            "componentType" : 5126,
            "count" : 4100,
            "type" : "VEC2"
        },
        {
            "bufferView" : 3,
            "componentType" : 5123,
            "count" : 6150,
            "type" : "SCALAR"
        },
        {
            "bufferView" : 4,
            "componentType" : 5126,
            "count" : 200,
            "max" : [
                8.333333333333334
            ],
            "min" : [
                0.041666666666666664
            ],
            "type" : "SCALAR"
        },
        {
            "bufferView" : 5,
            "componentType" : 5126,
            "count" : 200,
            "type" : "VEC3"
        },
        {
            "bufferView" : 6,
            "componentType" : 5126,
            "count" : 200,
            "type" : "VEC4"
        }
    ],
    "bufferViews" : [
        {
            "buffer" : 0,
            "byteLength" : 49200,
            "byteOffset" : 0
        },
        {
            "buffer" : 0,
            "byteLength" : 49200,
            "byteOffset" : 49200
        },
        {
            "buffer" : 0,
            "byteLength" : 32800,
            "byteOffset" : 98400
        },
        {
            "buffer" : 0,
            "byteLength" : 12300,
            "byteOffset" : 131200
        },
        {
            "buffer" : 0,
            "byteLength" : 800,
            "byteOffset" : 143500
        },
        {
            "buffer" : 0,
            "byteLength" : 2400,
            "byteOffset" : 144300
        },
        {
            "buffer" : 0,
            "byteLength" : 3200,
            "byteOffset" : 146700
        }
    ],
    "buffers" : [
        {
            "byteLength" : 149900,
            "uri" : "data:application/octet-stream;base64,"
        }
    ]
}
